<svg width="424" height="212" viewBox="0 0 424 212" fill="none" xmlns="http://www.w3.org/2000/svg">
<path d="M170.463 212L64.4612 106.002L170.463 0L212 41.5366L147.539 106.002L212 170.463L170.463 212Z" fill="#0F0F0F" style="fill:#0F0F0F;fill:color(display-p3 0.0588 0.0588 0.0588);fill-opacity:1;"/>
<path d="M41.5366 212L0 170.463L64.4613 106.002L0 41.5366L41.5366 0L147.539 106.002L41.5366 212Z" fill="#242424" style="fill:#242424;fill:color(display-p3 0.1412 0.1412 0.1412);fill-opacity:1;"/>
<g clip-path="url(#paint0_angular_4_196_clip_path)" data-figma-skip-parse="true"><g transform="matrix(-0.078 -0.078 0.078 -0.078 318 106)"><foreignObject x="-1371.79" y="-1371.79" width="2743.59" height="2743.59"><div xmlns="http://www.w3.org/1999/xhtml" style="background:conic-gradient(from 90deg,rgba(36, 36, 36, 1) 0deg,rgba(15, 15, 15, 1) 360deg);height:100%;width:100%;opacity:1"></div></foreignObject></g></g><path d="M424 106C424 164.542 376.542 212 318 212C259.458 212 212 164.542 212 106C212 47.4578 259.458 0 318 0C376.542 0 424 47.4578 424 106ZM273.48 106C273.48 130.588 293.412 150.52 318 150.52C342.588 150.52 362.52 130.588 362.52 106C362.52 81.4123 342.588 61.48 318 61.48C293.412 61.48 273.48 81.4123 273.48 106Z" data-figma-gradient-fill="{&#34;type&#34;:&#34;GRADIENT_ANGULAR&#34;,&#34;stops&#34;:[{&#34;color&#34;:{&#34;r&#34;:0.14117647707462311,&#34;g&#34;:0.14117647707462311,&#34;b&#34;:0.14117647707462311,&#34;a&#34;:1.0},&#34;position&#34;:0.0},{&#34;color&#34;:{&#34;r&#34;:0.058823529630899429,&#34;g&#34;:0.058823529630899429,&#34;b&#34;:0.058823529630899429,&#34;a&#34;:1.0},&#34;position&#34;:1.0}],&#34;stopsVar&#34;:[{&#34;color&#34;:{&#34;r&#34;:0.14117647707462311,&#34;g&#34;:0.14117647707462311,&#34;b&#34;:0.14117647707462311,&#34;a&#34;:1.0},&#34;position&#34;:0.0},{&#34;color&#34;:{&#34;r&#34;:0.058823529630899429,&#34;g&#34;:0.058823529630899429,&#34;b&#34;:0.058823529630899429,&#34;a&#34;:1.0},&#34;position&#34;:1.0}],&#34;transform&#34;:{&#34;m00&#34;:-156.0,&#34;m01&#34;:156.0,&#34;m02&#34;:318.0,&#34;m10&#34;:-156.0,&#34;m11&#34;:-156.0,&#34;m12&#34;:262.0},&#34;opacity&#34;:1.0,&#34;blendMode&#34;:&#34;NORMAL&#34;,&#34;visible&#34;:true}"/>
<defs>
<clipPath id="paint0_angular_4_196_clip_path"><path d="M424 106C424 164.542 376.542 212 318 212C259.458 212 212 164.542 212 106C212 47.4578 259.458 0 318 0C376.542 0 424 47.4578 424 106ZM273.48 106C273.48 130.588 293.412 150.52 318 150.52C342.588 150.52 362.52 130.588 362.52 106C362.52 81.4123 342.588 61.48 318 61.48C293.412 61.48 273.48 81.4123 273.48 106Z"/></clipPath></defs>
</svg>
