<svg width="212" height="212" viewBox="0 0 212 212" fill="none" xmlns="http://www.w3.org/2000/svg">
<g clip-path="url(#paint0_angular_4_206_clip_path)" data-figma-skip-parse="true"><g transform="matrix(-0.078 -0.078 0.078 -0.078 106 106)"><foreignObject x="-1371.79" y="-1371.79" width="2743.59" height="2743.59"><div xmlns="http://www.w3.org/1999/xhtml" style="background:conic-gradient(from 90deg,rgba(36, 36, 36, 1) 0deg,rgba(15, 15, 15, 1) 360deg);height:100%;width:100%;opacity:1"></div></foreignObject></g></g><path d="M212 106C212 164.542 164.542 212 106 212C47.4578 212 0 164.542 0 106C0 47.4578 47.4578 0 106 0C164.542 0 212 47.4578 212 106ZM61.48 106C61.48 130.588 81.4123 150.52 106 150.52C130.588 150.52 150.52 130.588 150.52 106C150.52 81.4123 130.588 61.48 106 61.48C81.4123 61.48 61.48 81.4123 61.48 106Z" data-figma-gradient-fill="{&#34;type&#34;:&#34;GRADIENT_ANGULAR&#34;,&#34;stops&#34;:[{&#34;color&#34;:{&#34;r&#34;:0.14117647707462311,&#34;g&#34;:0.14117647707462311,&#34;b&#34;:0.14117647707462311,&#34;a&#34;:1.0},&#34;position&#34;:0.0},{&#34;color&#34;:{&#34;r&#34;:0.058823529630899429,&#34;g&#34;:0.058823529630899429,&#34;b&#34;:0.058823529630899429,&#34;a&#34;:1.0},&#34;position&#34;:1.0}],&#34;stopsVar&#34;:[{&#34;color&#34;:{&#34;r&#34;:0.14117647707462311,&#34;g&#34;:0.14117647707462311,&#34;b&#34;:0.14117647707462311,&#34;a&#34;:1.0},&#34;position&#34;:0.0},{&#34;color&#34;:{&#34;r&#34;:0.058823529630899429,&#34;g&#34;:0.058823529630899429,&#34;b&#34;:0.058823529630899429,&#34;a&#34;:1.0},&#34;position&#34;:1.0}],&#34;transform&#34;:{&#34;m00&#34;:-156.0,&#34;m01&#34;:156.0,&#34;m02&#34;:106.00000762939453,&#34;m10&#34;:-156.0,&#34;m11&#34;:-156.0,&#34;m12&#34;:262.0},&#34;opacity&#34;:1.0,&#34;blendMode&#34;:&#34;NORMAL&#34;,&#34;visible&#34;:true}"/>
<defs>
<clipPath id="paint0_angular_4_206_clip_path"><path d="M212 106C212 164.542 164.542 212 106 212C47.4578 212 0 164.542 0 106C0 47.4578 47.4578 0 106 0C164.542 0 212 47.4578 212 106ZM61.48 106C61.48 130.588 81.4123 150.52 106 150.52C130.588 150.52 150.52 130.588 150.52 106C150.52 81.4123 130.588 61.48 106 61.48C81.4123 61.48 61.48 81.4123 61.48 106Z"/></clipPath></defs>
</svg>
