<svg width="36" height="29" viewBox="0 0 36 29" fill="none" xmlns="http://www.w3.org/2000/svg">
<path d="M35.8184 28.5791V28.832H29.4893L18.0977 9.3584L6.70801 28.832H0V28.5791L18.0967 0L35.8184 28.5791ZM11.4551 25.0352C11.7333 25.0384 11.8405 25.053 11.8965 25.3535C12.0612 26.238 11.8745 27.9114 11.7705 28.8311V28.832H11.2637C11.3292 27.6981 11.1741 26.4713 11.2637 25.3486C11.2828 25.1154 11.155 25.032 11.4551 25.0352ZM17.3389 25.1006C19.698 24.0354 20.8177 28.0482 18.4795 28.832H17.5928C16.0465 28.3087 15.8276 25.7835 17.3389 25.1006ZM23.1016 25.9062C23.2204 24.5857 25.4931 24.6705 25.6934 25.7354C25.8501 26.5733 24.912 25.5595 24.4912 25.54C23.9891 25.5161 23.4979 25.7579 23.8174 26.2822C24.0765 26.7093 26.3021 26.4045 25.7646 28.0791C25.6255 28.5138 25.1952 28.4387 25.1885 28.8301H23.9229L23.9219 28.832C23.746 28.621 22.7643 28.0824 23.0371 27.6953C23.0563 27.6697 23.6065 27.5271 23.6641 27.5703C23.7088 27.6026 23.688 27.9625 23.8799 28.084C24.3342 28.375 25.4013 28.2287 25.1758 27.5234C25.0026 26.9831 22.9832 27.2208 23.1016 25.9062ZM18.3887 28.1729C19.5317 27.913 19.4018 25.0618 17.6826 25.5703C16.6622 25.8727 16.5477 28.5919 18.3887 28.1729ZM16.2012 19.6016C16.2923 21.8152 18.8453 22.4264 19.8594 20.4111C19.9457 20.2384 20.0349 19.6016 20.1885 19.6016H22.1514L21.8984 21.498C22.0264 21.6388 22.7854 20.9232 23.0352 21.1816C20.7095 25.1563 15.2649 24.5835 12.9121 20.9287C13.2096 20.6361 14.2211 21.8489 14.4307 21.625L14.1777 19.6016H16.2012ZM14.0469 17.8916C16.4316 15.7391 19.6308 15.8044 22.0234 17.8916C22.1566 18.0087 23.0463 18.8328 22.9072 18.9688C22.1411 18.708 21.4707 18.2106 20.6982 17.9531C19.0445 17.4014 17.2725 17.2777 15.5947 17.7959C14.7711 18.0502 14.0963 18.6387 13.2871 18.9043C13.3703 18.4997 13.7494 18.1603 14.0469 17.8916Z" fill="#242424" style="fill:#242424;fill:color(display-p3 0.1412 0.1412 0.1412);fill-opacity:1;"/>
</svg>
