<svg width="100" height="100" viewBox="0 0 100 100" fill="none" xmlns="http://www.w3.org/2000/svg">
<rect width="100" height="100" rx="50" fill="#D9D9D9" fill-opacity="0.1" style="fill:#D9D9D9;fill:color(display-p3 0.8510 0.8510 0.8510);fill-opacity:0.1;"/>
<path d="M71.7218 74.8813H36.4282V30.9978H70.8244V56.9414C70.8244 57.4359 71.2243 57.8358 71.7188 57.8358C72.2133 57.8358 72.6132 57.4359 72.6132 56.9414V30.9978C72.6132 30.0118 71.8104 29.209 70.8244 29.209H36.4282C35.4422 29.209 34.6394 30.0118 34.6394 30.9978V74.8813C34.6394 75.8673 35.4422 76.6701 36.4282 76.6701H71.7188C72.2133 76.6701 72.6132 76.2702 72.6132 75.7757C72.6132 75.2812 72.2133 74.8813 71.7188 74.8813H71.7218Z" fill="white" style="fill:white;fill-opacity:1;"/>
<path d="M31.6509 68.6723H29.7888V24.7888H64.185V26.3578C64.185 26.8523 64.5849 27.2522 65.0794 27.2522C65.5739 27.2522 65.9738 26.8523 65.9738 26.3578V24.7888C65.9738 23.8028 65.1709 23 64.185 23H29.7888C28.8028 23 28 23.8028 28 24.7888V68.6723C28 69.6583 28.8028 70.4611 29.7888 70.4611H31.6509C32.1454 70.4611 32.5453 70.0612 32.5453 69.5667C32.5453 69.0722 32.1454 68.6723 31.6509 68.6723Z" fill="white" style="fill:white;fill-opacity:1;"/>
<path d="M41.3795 37.2097H45.6989C46.1934 37.2097 46.5933 36.8098 46.5933 36.3153C46.5933 35.8208 46.1934 35.4209 45.6989 35.4209H41.3795C40.885 35.4209 40.4851 35.8208 40.4851 36.3153C40.4851 36.8098 40.885 37.2097 41.3795 37.2097Z" fill="white" style="fill:white;fill-opacity:1;"/>
<path d="M41.3793 42.7497H48.9252C49.4197 42.7497 49.8196 42.3498 49.8196 41.8553C49.8196 41.3608 49.4197 40.9609 48.9252 40.9609H41.3793C40.8847 40.9609 40.4849 41.3608 40.4849 41.8553C40.4849 42.3498 40.8847 42.7497 41.3793 42.7497Z" fill="white" style="fill:white;fill-opacity:1;"/>
<path d="M65.8762 46.5049H41.3795C40.885 46.5049 40.4851 46.9048 40.4851 47.3993C40.4851 47.8938 40.885 48.2937 41.3795 48.2937H65.8762C66.3708 48.2937 66.7706 47.8938 66.7706 47.3993C66.7706 46.9048 66.3708 46.5049 65.8762 46.5049Z" fill="white" style="fill:white;fill-opacity:1;"/>
<path d="M66.7706 52.9393C66.7706 52.4448 66.3708 52.0449 65.8762 52.0449H41.3795C40.885 52.0449 40.4851 52.4448 40.4851 52.9393C40.4851 53.4338 40.885 53.8337 41.3795 53.8337H65.8762C66.3708 53.8337 66.7706 53.4338 66.7706 52.9393Z" fill="white" style="fill:white;fill-opacity:1;"/>
<path d="M58.5468 58.4823C58.5468 57.9878 58.1469 57.5879 57.6524 57.5879H41.3793C40.8847 57.5879 40.4849 57.9878 40.4849 58.4823C40.4849 58.9768 40.8847 59.3767 41.3793 59.3767H57.6524C58.1469 59.3767 58.5468 58.9768 58.5468 58.4823Z" fill="white" style="fill:white;fill-opacity:1;"/>
<path d="M41.3793 64.9177H55.3844C55.8789 64.9177 56.2788 64.5178 56.2788 64.0233C56.2788 63.5288 55.8789 63.1289 55.3844 63.1289H41.3793C40.8847 63.1289 40.4849 63.5288 40.4849 64.0233C40.4849 64.5178 40.8847 64.9177 41.3793 64.9177Z" fill="white" style="fill:white;fill-opacity:1;"/>
<path d="M41.3793 70.4616H56.4711C56.9656 70.4616 57.3655 70.0618 57.3655 69.5673C57.3655 69.0727 56.9656 68.6729 56.4711 68.6729H41.3793C40.8847 68.6729 40.4849 69.0727 40.4849 69.5673C40.4849 70.0618 40.8847 70.4616 41.3793 70.4616Z" fill="white" style="fill:white;fill-opacity:1;"/>
<path d="M71.2334 68.8613C73.2542 66.2178 73.065 62.4113 70.6474 59.9937C69.3714 58.7177 67.6772 58.0156 65.8732 58.0156C64.0691 58.0156 62.3749 58.7177 61.099 59.9937C58.4677 62.625 58.4677 66.9077 61.099 69.5421C62.4146 70.8577 64.1424 71.5171 65.8732 71.5171C67.3201 71.5171 68.7639 71.05 69.9666 70.1282L73.126 73.2876C73.3 73.4615 73.529 73.5501 73.7579 73.5501C73.9868 73.5501 74.2158 73.4615 74.3898 73.2876C74.7378 72.9396 74.7378 72.3718 74.3898 72.0238L71.2304 68.8644L71.2334 68.8613ZM62.3658 68.2753C60.4305 66.3399 60.4305 63.1928 62.3658 61.2574C63.3029 60.3203 64.5483 59.8044 65.8732 59.8044C67.198 59.8044 68.4434 60.3203 69.3805 61.2574C71.3159 63.1928 71.3159 66.3399 69.3805 68.2753C67.4452 70.2106 64.298 70.2106 62.3627 68.2753H62.3658Z" fill="white" style="fill:white;fill-opacity:1;"/>
<path d="M66.7706 37.2097C66.7706 36.2237 65.9678 35.4209 64.9818 35.4209H61.2302C60.2442 35.4209 59.4414 36.2237 59.4414 37.2097V40.9613C59.4414 41.9473 60.2442 42.7501 61.2302 42.7501H64.9818C65.9678 42.7501 66.7706 41.9473 66.7706 40.9613V37.2097ZM64.9818 40.9613H61.2302V37.2097H64.9818V40.9613Z" fill="white" style="fill:white;fill-opacity:1;"/>
</svg>
