<svg width="100" height="100" viewBox="0 0 100 100" fill="none" xmlns="http://www.w3.org/2000/svg">
<rect width="100" height="100" rx="50" fill="#D9D9D9" fill-opacity="0.1" style="fill:#D9D9D9;fill:color(display-p3 0.8510 0.8510 0.8510);fill-opacity:0.1;"/>
<path d="M79.7121 67.9434V72.9926C79.7121 74.3871 76.3529 75.5184 72.2084 75.5184C68.0639 75.5184 64.7058 74.3871 64.7058 72.9926V67.9434C64.7058 69.3379 68.0651 70.468 72.2084 70.468C76.3517 70.468 79.7121 69.3379 79.7121 67.9434Z" fill="#999999" style="fill:#999999;fill:color(display-p3 0.6000 0.6000 0.6000);fill-opacity:1;"/>
<path d="M72.2084 60.3664C76.3529 60.3664 79.7121 59.2363 79.7121 57.8418V62.8922C79.7121 64.2867 76.3529 65.4168 72.2084 65.4168C68.0639 65.4168 64.7058 64.2867 64.7058 62.8922V57.8418C64.7058 59.2363 68.0651 60.3664 72.2084 60.3664Z" fill="#999999" style="fill:#999999;fill:color(display-p3 0.6000 0.6000 0.6000);fill-opacity:1;"/>
<path d="M51.431 60.3664C55.5743 60.3664 58.9347 59.2363 58.9347 57.8418V62.8922C58.9347 64.2867 55.5743 65.4168 51.431 65.4168C47.2877 65.4168 43.9272 64.2867 43.9272 62.8922V57.8418C43.9272 59.2363 47.2877 60.3664 51.431 60.3664Z" fill="#999999" style="fill:#999999;fill:color(display-p3 0.6000 0.6000 0.6000);fill-opacity:1;"/>
<path d="M58.9347 67.9434V72.9926C58.9347 74.3871 55.5743 75.5184 51.431 75.5184C47.2877 75.5184 43.9272 74.3871 43.9272 72.9926V67.9434C43.9272 69.3379 47.2877 70.468 51.431 70.468C55.5743 70.468 58.9347 69.3379 58.9347 67.9434Z" fill="#999999" style="fill:#999999;fill:color(display-p3 0.6000 0.6000 0.6000);fill-opacity:1;"/>
<path d="M30.6534 60.3664C34.7967 60.3664 38.156 59.2363 38.156 57.8418V62.8922C38.156 64.2867 34.7967 65.4168 30.6534 65.4168C26.5101 65.4168 23.1497 64.2867 23.1497 62.8922V57.8418C23.1497 59.2363 26.5089 60.3664 30.6534 60.3664Z" fill="#999999" style="fill:#999999;fill:color(display-p3 0.6000 0.6000 0.6000);fill-opacity:1;"/>
<path d="M38.156 67.9434V72.9926C38.156 74.3871 34.7967 75.5184 30.6534 75.5184C26.5101 75.5184 23.1497 74.3871 23.1497 72.9926V67.9434C23.1497 69.3379 26.5089 70.468 30.6534 70.468C34.7979 70.468 38.156 69.3379 38.156 67.9434Z" fill="#999999" style="fill:#999999;fill:color(display-p3 0.6000 0.6000 0.6000);fill-opacity:1;"/>
<path d="M39.4756 44.9226H45.0825C45.7171 44.9226 46.2321 44.4076 46.2321 43.7729C46.2321 43.1383 45.7171 42.6233 45.0825 42.6233H39.4756C37.4729 42.6233 35.8427 40.7379 35.8427 38.4213C35.8427 36.3727 37.1602 34.5896 38.9066 34.2711C39.3894 34.1838 39.763 33.7998 39.8366 33.3146C40.1919 31.0038 42.2129 29.2621 44.5375 29.2621C45.8332 29.2621 47.0437 29.7772 47.9485 30.7141C48.5624 31.3499 49.6419 31.082 49.8822 30.2267C50.6962 27.3261 53.3576 25.2993 56.3536 25.2993C60.3658 25.2993 63.563 28.8551 63.0169 32.9881C62.9364 33.5963 63.3469 34.1608 63.9504 34.27C65.699 34.5873 67.0177 36.3727 67.0177 38.4213C67.0177 40.7379 65.3886 42.6233 63.3848 42.6233H57.778C57.1434 42.6233 56.6283 43.1383 56.6283 43.7729C56.6283 44.4076 57.1434 44.9226 57.778 44.9226H63.3848C66.6556 44.9226 69.317 42.0059 69.317 38.4213C69.317 35.6174 67.7109 33.1962 65.376 32.2937C65.5013 27.2135 61.4212 23 56.3536 23C52.8989 23 49.7765 25.0038 48.2727 28.0343C44.2777 25.5177 38.956 27.6193 37.7236 32.2075C35.2599 33.0318 33.5435 35.5219 33.5435 38.4213C33.5435 42.0059 36.2049 44.9226 39.4756 44.9226Z" fill="white" style="fill:white;fill-opacity:1;"/>
<path d="M80.855 57.7201C80.7296 55.4898 77.1864 54.377 73.3581 54.1942V54.162C73.3581 51.619 71.2888 49.5496 68.7457 49.5496H52.5806V46.0823C52.5806 45.4477 52.0655 44.9326 51.4309 44.9326C50.7963 44.9326 50.2813 45.4477 50.2813 46.0823V49.5496H34.1161C31.5731 49.5496 29.5037 51.619 29.5037 54.162V54.1942C25.6754 54.377 22.1322 55.4898 22.0069 57.7201C22.0023 57.7604 22 57.8006 22 57.842V72.992C22 75.5304 26.3457 76.6674 30.6534 76.6674C34.9611 76.6674 39.3056 75.5304 39.3056 72.992C39.3033 56.8843 39.3114 57.8385 39.2987 57.7201C39.1734 55.4898 35.6302 54.377 31.8019 54.1942V54.162C31.8019 52.8859 32.84 51.8489 34.115 51.8489H50.2801V54.1942C46.4518 54.377 42.9086 55.4898 42.7833 57.7201C42.7706 57.8397 42.7787 56.8487 42.7764 72.992C42.7764 75.5304 47.1221 76.6674 51.4298 76.6674C55.7375 76.6674 60.0832 75.5304 60.0832 72.992C60.0809 56.8636 60.0889 57.8397 60.0763 57.7201C59.951 55.4898 56.4077 54.377 52.5794 54.1942V51.8489H68.7446C70.0207 51.8489 71.0577 52.887 71.0577 54.162V54.1942C67.2294 54.377 63.6862 55.4898 63.5608 57.7201C63.5482 57.8385 63.5562 56.8406 63.5539 72.992C63.5539 75.5304 67.8996 76.6674 72.2062 76.6674C76.5127 76.6674 80.8596 75.5304 80.8596 72.992C80.8573 56.8636 80.8653 57.8397 80.8527 57.7201H80.855ZM30.6534 74.3681C26.7377 74.3681 24.597 73.376 24.2993 72.9288V60.4655C27.5562 61.8669 33.7436 61.8703 37.0063 60.4655V72.9288C36.7086 73.376 34.5691 74.3681 30.6534 74.3681ZM30.6534 59.217C26.9136 59.217 24.7925 58.3133 24.351 57.842C24.7925 57.3718 26.9113 56.467 30.6476 56.4659H30.6591C34.3955 56.4659 36.5131 57.3706 36.9557 57.842C36.5131 58.3133 34.3932 59.217 30.6545 59.217H30.6534ZM51.4309 74.3681C47.5152 74.3681 45.3746 73.376 45.0768 72.9288V60.4655C48.3338 61.868 54.5223 61.8703 57.785 60.4655V72.9288C57.4873 73.376 55.3466 74.3681 51.4309 74.3681ZM51.4309 59.217C47.6911 59.217 45.5712 58.3133 45.1286 57.842C45.5712 57.3706 47.6888 56.467 51.4252 56.4659H51.4367C55.173 56.4659 57.2907 57.3706 57.7333 57.842C57.2907 58.3133 55.1707 59.217 51.4309 59.217ZM72.2027 56.4659H72.2142C75.9506 56.4659 78.0694 57.3706 78.5108 57.842C78.0682 58.3133 75.9483 59.217 72.2085 59.217C68.4687 59.217 66.3487 58.3133 65.9073 57.842C66.3487 57.3718 68.4675 56.467 72.2039 56.4659H72.2027ZM72.2085 74.3681C68.2928 74.3681 66.1533 73.376 65.8555 72.9288V60.4655C69.1125 61.8669 75.2999 61.8692 78.5626 60.4655V72.9288C78.2648 73.376 76.1242 74.3681 72.2085 74.3681Z" fill="white" style="fill:white;fill-opacity:1;"/>
<path d="M47.391 47.2307C45.4837 47.2307 43.9329 45.6798 43.9329 43.7726C43.9329 41.8653 45.4837 40.3145 47.391 40.3145H55.4707C57.378 40.3145 58.9288 41.8653 58.9288 43.7726C58.9288 45.6798 57.378 47.2307 55.4707 47.2307H47.391Z" fill="#999999" style="fill:#999999;fill:color(display-p3 0.6000 0.6000 0.6000);fill-opacity:1;"/>
</svg>
