<svg width="100" height="100" viewBox="0 0 100 100" fill="none" xmlns="http://www.w3.org/2000/svg">
<rect width="100" height="100" rx="50" fill="#D9D9D9" fill-opacity="0.1" style="fill:#D9D9D9;fill:color(display-p3 0.8510 0.8510 0.8510);fill-opacity:0.1;"/>
<g clip-path="url(#clip0_41_136)">
<path d="M50.1105 49.5599C61.3957 37.8165 67.5806 25.4487 63.925 21.9357C60.2694 18.4227 48.1575 25.0948 36.8723 36.8382C25.5871 48.5816 19.4022 60.9494 23.0578 64.4624C26.7135 67.9754 38.8253 61.3033 50.1105 49.5599Z" stroke="white" style="stroke:white;stroke-opacity:1;" stroke-width="2" stroke-linecap="round" stroke-linejoin="round"/>
<path d="M47.1181 46.6844C55.8814 37.5653 61.3617 28.6123 59.3586 26.6875C57.3556 24.7626 48.6278 30.5947 39.8644 39.7139C31.1011 48.833 25.6208 57.786 27.6239 59.7109C29.6269 61.6357 38.3547 55.8036 47.1181 46.6844Z" stroke="white" style="stroke:white;stroke-opacity:1;" stroke-width="2" stroke-linecap="round" stroke-linejoin="round"/>
<path d="M77.8099 35.2695C81.4599 38.7795 75.2799 51.1595 63.9999 62.8995C52.7199 74.6395 40.5899 81.3195 36.9299 77.8095" stroke="white" style="stroke:white;stroke-opacity:1;" stroke-width="2" stroke-linecap="round" stroke-linejoin="round"/>
<path d="M23.05 64.4697L36.93 77.8097" stroke="white" style="stroke:white;stroke-opacity:1;" stroke-width="2" stroke-linecap="round" stroke-linejoin="round"/>
<path d="M77.8099 35.2704L76.1199 33.6504L68.1699 26.0104L63.9299 21.9404" stroke="white" style="stroke:white;stroke-opacity:1;" stroke-width="2" stroke-linecap="round" stroke-linejoin="round"/>
<path d="M60.8005 57.193C62.3665 55.627 62.3728 53.0943 60.8146 51.5361C59.2564 49.9779 56.7238 49.9842 55.1578 51.5502C53.5918 53.1162 53.5854 55.6489 55.1436 57.2071C56.7018 58.7653 59.2345 58.759 60.8005 57.193Z" stroke="white" style="stroke:white;stroke-opacity:1;" stroke-width="1.66" stroke-linecap="round" stroke-linejoin="round"/>
</g>
<defs>
<clipPath id="clip0_41_136">
<rect width="58.86" height="59.75" fill="white" style="fill:white;fill-opacity:1;" transform="translate(21 20)"/>
</clipPath>
</defs>
</svg>
